<svg width="180" height="74" viewBox="0 0 180 74" fill="none" xmlns="http://www.w3.org/2000/svg">
<g filter="url(#filter0_d_652_26912)">
<path d="M26.0084 40C25.5332 40 25.0897 39.7594 24.8272 39.3593L21.7592 34.683C21.1966 33.8255 19.9489 33.8295 19.3917 34.6906L16.376 39.3516C16.1142 39.7561 15.6681 40 15.1897 40H11.4196C10.2669 40 9.59646 38.6838 10.2665 37.7364L16.3097 29.1919C16.6587 28.6984 16.662 28.0363 16.3179 27.5394L10.5797 19.2519C9.92271 18.3031 10.5947 17 11.7409 17H15.469C15.9357 17 16.3725 17.2321 16.6369 17.6206L19.5548 21.9086C20.1202 22.7394 21.336 22.7353 21.8958 21.9007L24.7614 17.6285C25.0251 17.2354 25.4645 17 25.9346 17H29.3293C30.4826 17 31.1529 18.3175 30.4815 19.2647L24.8043 27.2745C24.4519 27.7717 24.4511 28.4402 24.8023 28.9383L31.0078 37.738C31.6761 38.6856 31.0054 40 29.8536 40H26.0084Z" fill="#DF9B00"/>
<path d="M43.6492 40C43.1796 40 42.7405 39.765 42.4767 39.3726L39.2872 34.6267C38.7227 33.7868 37.4962 33.7908 36.9372 34.6343L33.8017 39.3649C33.5387 39.7618 33.097 40 32.6242 40H28.7053C27.5451 40 26.8765 38.6688 27.5617 37.7232L33.7331 29.2051C34.0947 28.706 34.0981 28.0287 33.7415 27.526L27.8822 19.2652C27.2104 18.3179 27.8806 17 29.0342 17H32.9098C33.3709 17 33.8031 17.2266 34.0685 17.6074L37.1048 21.963C37.6716 22.7761 38.8663 22.772 39.4276 21.9551L42.4096 17.6153C42.6744 17.2299 43.1093 17 43.5738 17H47.1077C48.2685 17 48.937 18.3325 48.2505 19.278L42.454 27.2613C42.0889 27.7642 42.0881 28.4479 42.452 28.9516L48.7896 37.7248C49.4729 38.6707 48.8041 40 47.6449 40H43.6492Z" fill="#DF9B00"/>
<path d="M61.0852 40C60.61 40 60.1665 39.7594 59.904 39.3593L56.836 34.6831C56.2734 33.8255 55.0257 33.8295 54.4685 34.6907L51.4528 39.3517C51.191 39.7562 50.7449 40 50.2665 40H46.4964C45.3437 40 44.6733 38.6839 45.3433 37.7364L51.3865 29.1919C51.7355 28.6985 51.7388 28.0364 51.3947 27.5394L45.6564 19.2519C44.9995 18.3031 45.6715 17 46.8177 17H50.5458C51.0125 17 51.4493 17.2321 51.7137 17.6206L54.6316 21.9086C55.197 22.7394 56.4128 22.7353 56.9726 21.9007L59.8382 17.6285C60.1019 17.2355 60.5413 17 61.0114 17H64.4061C65.5594 17 66.2297 18.3175 65.5583 19.2648L59.8811 27.2745C59.5287 27.7718 59.5279 28.4403 59.8791 28.9383L66.0846 37.7381C66.7529 38.6857 66.0822 40 64.9304 40H61.0852Z" fill="#DF9B00"/>
</g>
<g filter="url(#filter1_d_652_26912)">
<path d="M133.162 23.1586C133.162 22.6063 132.714 22.1586 132.162 22.1586H127.423C126.871 22.1586 126.423 21.7109 126.423 21.1586V18C126.423 17.4477 126.871 17 127.423 17H145.076C145.628 17 146.076 17.4477 146.076 18V21.1586C146.076 21.7109 145.628 22.1586 145.076 22.1586H140.368C139.816 22.1586 139.368 22.6063 139.368 23.1586V39C139.368 39.5523 138.921 40 138.368 40H134.162C133.61 40 133.162 39.5523 133.162 39V23.1586Z" fill="#DF9B00"/>
<path d="M168.634 17C169.344 17 169.828 17.7206 169.559 18.3784L160.973 39.3784C160.82 39.7544 160.454 40 160.048 40H155.279C154.873 40 154.507 39.7539 154.353 39.3774L145.796 18.3774C145.528 17.7197 146.012 17 146.722 17H151.264C151.674 17 152.042 17.2499 152.193 17.6306L156.979 29.6693C157.312 30.5069 158.496 30.5111 158.835 29.676L163.726 17.6239C163.879 17.2467 164.246 17 164.653 17H168.634Z" fill="#DF9B00"/>
</g>
<path d="M25.0084 39C24.5332 39 24.0897 38.7594 23.8272 38.3593L20.7592 33.683C20.1966 32.8255 18.9489 32.8295 18.3917 33.6906L15.376 38.3516C15.1142 38.7562 14.6681 39 14.1897 39H10.4196C9.26692 39 8.59646 37.6838 9.26653 36.7364L15.3097 28.1919C15.6587 27.6984 15.662 27.0363 15.3179 26.5394L9.57965 18.2519C8.92271 17.3031 9.5947 16 10.7409 16H14.469C14.9357 16 15.3725 16.2321 15.6369 16.6206L18.5548 20.9086C19.1202 21.7394 20.336 21.7353 20.8958 20.9007L23.7614 16.6285C24.0251 16.2354 24.4645 16 24.9346 16H28.3293C29.4826 16 30.1529 17.3175 29.4815 18.2647L23.8043 26.2745C23.4519 26.7717 23.4511 27.4402 23.8023 27.9383L30.0078 36.738C30.6761 37.6856 30.0054 39 28.8536 39H25.0084Z" fill="url(#paint0_linear_652_26912)"/>
<path d="M42.6492 39C42.1796 39 41.7405 38.765 41.4767 38.3726L38.2872 33.6267C37.7228 32.7868 36.4962 32.7908 35.9372 33.6343L32.8017 38.3649C32.5387 38.7618 32.097 39 31.6242 39H27.7053C26.5451 39 25.8765 37.6688 26.5617 36.7232L32.7331 28.2051C33.0947 27.706 33.0981 27.0287 32.7415 26.526L26.8822 18.2652C26.2104 17.3179 26.8806 16 28.0342 16H31.9098C32.3709 16 32.8031 16.2266 33.0685 16.6074L36.1048 20.963C36.6716 21.7761 37.8663 21.772 38.4276 20.9551L41.4096 16.6153C41.6744 16.2299 42.1093 16 42.5738 16H46.1077C47.2685 16 47.937 17.3325 47.2505 18.278L41.454 26.2613C41.0889 26.7642 41.0881 27.4479 41.452 27.9516L47.7896 36.7248C48.4729 37.6707 47.8041 39 46.6449 39H42.6492Z" fill="url(#paint1_linear_652_26912)"/>
<path d="M60.0852 39C59.61 39 59.1665 38.7594 58.904 38.3593L55.836 33.6831C55.2734 32.8255 54.0257 32.8295 53.4685 33.6907L50.4528 38.3517C50.191 38.7562 49.7449 39 49.2665 39H45.4964C44.3437 39 43.6733 37.6839 44.3433 36.7364L50.3865 28.1919C50.7355 27.6985 50.7388 27.0364 50.3947 26.5394L44.6564 18.2519C43.9995 17.3031 44.6715 16 45.8177 16H49.5458C50.0125 16 50.4493 16.2321 50.7137 16.6206L53.6316 20.9086C54.197 21.7394 55.4128 21.7353 55.9726 20.9007L58.8382 16.6285C59.1019 16.2355 59.5413 16 60.0114 16H63.4061C64.5595 16 65.2297 17.3175 64.5583 18.2648L58.8811 26.2745C58.5287 26.7718 58.5279 27.4403 58.8791 27.9383L65.0846 36.7381C65.7529 37.6857 65.0822 39 63.9304 39H60.0852Z" fill="url(#paint2_linear_652_26912)"/>
<path d="M132.162 22.1586C132.162 21.6063 131.714 21.1586 131.162 21.1586H126.423C125.871 21.1586 125.423 20.7109 125.423 20.1586V17C125.423 16.4477 125.871 16 126.423 16H144.076C144.628 16 145.076 16.4477 145.076 17V20.1586C145.076 20.7109 144.628 21.1586 144.076 21.1586H139.368C138.816 21.1586 138.368 21.6063 138.368 22.1586V38C138.368 38.5523 137.921 39 137.368 39H133.162C132.61 39 132.162 38.5523 132.162 38V22.1586Z" fill="url(#paint3_linear_652_26912)"/>
<path d="M167.634 16C168.344 16 168.828 16.7206 168.559 17.3784L159.973 38.3784C159.82 38.7544 159.454 39 159.048 39H154.279C153.873 39 153.507 38.7539 153.353 38.3774L144.796 17.3774C144.528 16.7197 145.012 16 145.722 16H150.264C150.674 16 151.042 16.2499 151.193 16.6306L155.979 28.6693C156.312 29.5069 157.496 29.5111 157.835 28.676L162.726 16.6239C162.879 16.2467 163.246 16 163.653 16H167.634Z" fill="url(#paint4_linear_652_26912)"/>
<rect x="68.25" y="0.25" width="56.5" height="56.5" rx="28.25" stroke="#0C0C0C" stroke-opacity="0.3" stroke-width="0.5"/>
<g filter="url(#filter2_d_652_26912)">
<circle cx="96.5001" cy="28.5001" r="25.7857" fill="url(#paint5_linear_652_26912)"/>
</g>
<path d="M93.021 51.7278C96.4126 51.1718 97.7662 50.4033 98.3241 47.4853C98.3241 47.4853 103.486 51.4246 109.92 47.6974C112.961 45.9363 115.204 42.7995 115.294 38.5763C115.402 33.5441 112.395 29.4079 108.011 27.8287C99.4554 24.7465 95.0715 31.859 95.0715 31.859L98.8897 35.1823C98.8897 35.1823 102.142 30.9398 106.385 32.7782C108.851 33.847 110.165 35.7486 110.062 38.4347C109.922 42.0786 106.243 45.0505 102.425 43.8085C96.5564 41.8995 98.7483 35.6064 98.7483 35.6064C96.6151 36.873 95.3554 37.3138 93.021 37.7276V51.7278Z" fill="black"/>
<path d="M103.176 41.8599C102.827 41.8599 102.502 41.7768 102.212 41.6106C101.546 41.2281 101.164 40.4467 101.164 39.4574V36.9968C101.164 36.0158 101.546 35.2261 102.212 34.8437C102.877 34.4612 103.741 34.5194 104.597 35.0182L106.734 36.2486C107.582 36.739 108.072 37.4623 108.072 38.2271C108.072 38.9919 107.582 39.7152 106.734 40.2056L104.597 41.436C104.115 41.7186 103.625 41.8599 103.176 41.8599Z" fill="black"/>
<path d="M103.344 26.6974C100.658 26.8388 99.4555 27.4044 97.4757 28.8186C97.4757 28.8186 99.5262 24.0341 95.2837 21.3236C93.1739 19.9756 89.6912 20.1464 87.718 22.3842C85.6348 24.7467 85.9842 28.6849 88.0008 30.4449C91.8898 33.8388 95.7787 30.9398 95.7787 30.9398L98.8898 35.1823C90.8998 40.5561 81.3543 34.4752 81.2129 27.1923V11.2788C82.9939 11.3745 83.9233 11.523 85.0407 12.6513C86.2692 13.8919 85.9412 15.7581 86.3038 16.9397C92.1726 12.9801 102.637 15.8084 103.344 26.6974Z" fill="black"/>
<path d="M93.021 49.7278C96.4126 49.1718 97.7662 48.4033 98.3241 45.4853C98.3241 45.4853 103.486 49.4246 109.92 45.6974C112.961 43.9363 115.204 40.7995 115.294 36.5763C115.402 31.5441 112.395 27.4079 108.011 25.8287C99.4554 22.7465 95.0715 29.859 95.0715 29.859L98.8897 33.1823C98.8897 33.1823 102.142 28.9398 106.385 30.7782C108.851 31.847 110.165 33.7486 110.062 36.4347C109.922 40.0786 106.243 43.0505 102.425 41.8085C96.5564 39.8995 98.4996 34.0003 98.4996 34.0003C96.3664 35.2669 95.3554 35.3138 93.021 35.7276V49.7278Z" fill="url(#paint6_linear_652_26912)"/>
<path d="M103.176 39.8599C102.827 39.8599 102.502 39.7768 102.212 39.6106C101.546 39.2281 101.164 38.4467 101.164 37.4574V34.9968C101.164 34.0158 101.546 33.2261 102.212 32.8437C102.877 32.4612 103.741 32.5194 104.597 33.0182L106.734 34.2486C107.582 34.739 108.072 35.4623 108.072 36.2271C108.072 36.9919 107.582 37.7152 106.734 38.2056L104.597 39.436C104.115 39.7186 103.625 39.8599 103.176 39.8599Z" fill="white"/>
<path d="M103.5 24.5001C100.68 24.6036 99.3271 25.0417 97.4998 26.5001C97.4998 26.5001 99.5262 22.0341 95.2837 19.3236C93.1739 17.9756 89.6912 18.1464 87.718 20.3842C85.6348 22.7467 85.9842 26.6849 88.0008 28.4449C91.8898 31.8388 95.7787 28.9398 95.7787 28.9398L98.8898 33.1823C90.8998 38.5561 81.3543 32.4752 81.2129 25.1923V9.27881C82.9939 9.37455 83.9233 9.52296 85.0407 10.6513C86.2692 11.8919 85.9412 13.7581 86.3038 14.9397C92.1726 10.9801 102.793 13.6111 103.5 24.5001Z" fill="url(#paint7_linear_652_26912)"/>
<path d="M10.021 49.0001L12.128 46.0951V46.9211L10.112 44.1001H11.4L12.793 46.0671L12.254 46.0741L13.626 44.1001H14.858L12.856 46.8721V46.0601L14.977 49.0001H13.668L12.226 46.9211H12.744L11.323 49.0001H10.021Z" fill="black" fill-opacity="0.5"/>
<path d="M17.8129 49.0001L19.9199 46.0951V46.9211L17.9039 44.1001H19.1919L20.5849 46.0671L20.0459 46.0741L21.4179 44.1001H22.6499L20.6479 46.8721V46.0601L22.7689 49.0001H21.4599L20.0179 46.9211H20.5359L19.1149 49.0001H17.8129Z" fill="black" fill-opacity="0.5"/>
<path d="M25.6047 49.0001L27.7117 46.0951V46.9211L25.6957 44.1001H26.9837L28.3767 46.0671L27.8377 46.0741L29.2097 44.1001H30.4417L28.4397 46.8721V46.0601L30.5607 49.0001H29.2517L27.8097 46.9211H28.3277L26.9067 49.0001H25.6047Z" fill="black" fill-opacity="0.5"/>
<path d="M33.8746 49.0001V44.1001H36.2686C36.8846 44.1001 37.3466 44.2168 37.6546 44.4501C37.9673 44.6834 38.1236 44.9914 38.1236 45.3741C38.1236 45.6308 38.0606 45.8548 37.9346 46.0461C37.8086 46.2328 37.6359 46.3774 37.4166 46.4801C37.1973 46.5828 36.9453 46.6341 36.6606 46.6341L36.7936 46.3471C37.1016 46.3471 37.3746 46.3984 37.6126 46.5011C37.8506 46.5991 38.0349 46.7461 38.1656 46.9421C38.3009 47.1381 38.3686 47.3784 38.3686 47.6631C38.3686 48.0831 38.2029 48.4121 37.8716 48.6501C37.5403 48.8834 37.0526 49.0001 36.4086 49.0001H33.8746ZM35.0016 48.1461H36.3246C36.6186 48.1461 36.8403 48.0994 36.9896 48.0061C37.1436 47.9081 37.2206 47.7541 37.2206 47.5441C37.2206 47.3388 37.1436 47.1871 36.9896 47.0891C36.8403 46.9864 36.6186 46.9351 36.3246 46.9351H34.9176V46.1091H36.1286C36.4039 46.1091 36.6139 46.0624 36.7586 45.9691C36.9079 45.8711 36.9826 45.7241 36.9826 45.5281C36.9826 45.3368 36.9079 45.1944 36.7586 45.1011C36.6139 45.0031 36.4039 44.9541 36.1286 44.9541H35.0016V48.1461Z" fill="black" fill-opacity="0.5"/>
<path d="M42.0971 49.0001V44.1001H44.2181C44.6568 44.1001 45.0348 44.1724 45.3521 44.3171C45.6695 44.4571 45.9145 44.6601 46.0871 44.9261C46.2598 45.1921 46.3461 45.5094 46.3461 45.8781C46.3461 46.2421 46.2598 46.5571 46.0871 46.8231C45.9145 47.0891 45.6695 47.2944 45.3521 47.4391C45.0348 47.5791 44.6568 47.6491 44.2181 47.6491H42.7271L43.2311 47.1381V49.0001H42.0971ZM43.2311 47.2641L42.7271 46.7251H44.1551C44.5051 46.7251 44.7665 46.6504 44.9391 46.5011C45.1118 46.3518 45.1981 46.1441 45.1981 45.8781C45.1981 45.6074 45.1118 45.3974 44.9391 45.2481C44.7665 45.0988 44.5051 45.0241 44.1551 45.0241H42.7271L43.2311 44.4851V47.2641Z" fill="black" fill-opacity="0.5"/>
<path d="M50.2387 49.0561C50.052 49.0561 49.891 48.9931 49.7557 48.8671C49.625 48.7364 49.5597 48.5708 49.5597 48.3701C49.5597 48.1694 49.625 48.0084 49.7557 47.8871C49.891 47.7611 50.052 47.6981 50.2387 47.6981C50.43 47.6981 50.591 47.7611 50.7217 47.8871C50.8523 48.0084 50.9177 48.1694 50.9177 48.3701C50.9177 48.5708 50.8523 48.7364 50.7217 48.8671C50.591 48.9931 50.43 49.0561 50.2387 49.0561Z" fill="black" fill-opacity="0.5"/>
<path d="M55.3873 49.0001V45.0241H53.8193V44.1001H58.0893V45.0241H56.5213V49.0001H55.3873Z" fill="black" fill-opacity="0.5"/>
<path d="M62.9437 49.0001L60.8297 44.1001H62.0547L63.9027 48.4401H63.1817L65.0577 44.1001H66.1847L64.0637 49.0001H62.9437Z" fill="black" fill-opacity="0.5"/>
<defs>
<filter id="filter0_d_652_26912" x="0" y="11" width="76.3501" height="43" filterUnits="userSpaceOnUse" color-interpolation-filters="sRGB">
<feFlood flood-opacity="0" result="BackgroundImageFix"/>
<feColorMatrix in="SourceAlpha" type="matrix" values="0 0 0 0 0 0 0 0 0 0 0 0 0 0 0 0 0 0 127 0" result="hardAlpha"/>
<feOffset dy="4"/>
<feGaussianBlur stdDeviation="5"/>
<feComposite in2="hardAlpha" operator="out"/>
<feColorMatrix type="matrix" values="0 0 0 0 0.775 0 0 0 0 0.556296 0 0 0 0 0.0290625 0 0 0 0.7 0"/>
<feBlend mode="normal" in2="BackgroundImageFix" result="effect1_dropShadow_652_26912"/>
<feBlend mode="normal" in="SourceGraphic" in2="effect1_dropShadow_652_26912" result="shape"/>
</filter>
<filter id="filter1_d_652_26912" x="116.423" y="11" width="63.2119" height="43" filterUnits="userSpaceOnUse" color-interpolation-filters="sRGB">
<feFlood flood-opacity="0" result="BackgroundImageFix"/>
<feColorMatrix in="SourceAlpha" type="matrix" values="0 0 0 0 0 0 0 0 0 0 0 0 0 0 0 0 0 0 127 0" result="hardAlpha"/>
<feOffset dy="4"/>
<feGaussianBlur stdDeviation="5"/>
<feComposite in2="hardAlpha" operator="out"/>
<feColorMatrix type="matrix" values="0 0 0 0 0.775 0 0 0 0 0.556296 0 0 0 0 0.0290625 0 0 0 0.7 0"/>
<feBlend mode="normal" in2="BackgroundImageFix" result="effect1_dropShadow_652_26912"/>
<feBlend mode="normal" in="SourceGraphic" in2="effect1_dropShadow_652_26912" result="shape"/>
</filter>
<filter id="filter2_d_652_26912" x="60.7144" y="1.71436" width="71.5713" height="71.5713" filterUnits="userSpaceOnUse" color-interpolation-filters="sRGB">
<feFlood flood-opacity="0" result="BackgroundImageFix"/>
<feColorMatrix in="SourceAlpha" type="matrix" values="0 0 0 0 0 0 0 0 0 0 0 0 0 0 0 0 0 0 127 0" result="hardAlpha"/>
<feOffset dy="9"/>
<feGaussianBlur stdDeviation="5"/>
<feComposite in2="hardAlpha" operator="out"/>
<feColorMatrix type="matrix" values="0 0 0 0 0.775 0 0 0 0 0.556296 0 0 0 0 0.0290625 0 0 0 0.7 0"/>
<feBlend mode="normal" in2="BackgroundImageFix" result="effect1_dropShadow_652_26912"/>
<feBlend mode="normal" in="SourceGraphic" in2="effect1_dropShadow_652_26912" result="shape"/>
</filter>
<linearGradient id="paint0_linear_652_26912" x1="26.825" y1="16" x2="37.175" y2="39" gradientUnits="userSpaceOnUse">
<stop/>
<stop offset="1" stop-color="#453000"/>
</linearGradient>
<linearGradient id="paint1_linear_652_26912" x1="26.825" y1="16" x2="37.175" y2="39" gradientUnits="userSpaceOnUse">
<stop/>
<stop offset="1" stop-color="#453000"/>
</linearGradient>
<linearGradient id="paint2_linear_652_26912" x1="26.825" y1="16" x2="37.175" y2="39" gradientUnits="userSpaceOnUse">
<stop/>
<stop offset="1" stop-color="#453000"/>
</linearGradient>
<linearGradient id="paint3_linear_652_26912" x1="138.073" y1="16" x2="147.273" y2="39" gradientUnits="userSpaceOnUse">
<stop/>
<stop offset="1" stop-color="#4B3300"/>
</linearGradient>
<linearGradient id="paint4_linear_652_26912" x1="138.073" y1="16" x2="147.273" y2="39" gradientUnits="userSpaceOnUse">
<stop/>
<stop offset="1" stop-color="#4B3300"/>
</linearGradient>
<linearGradient id="paint5_linear_652_26912" x1="77.9613" y1="2.71435" x2="118.181" y2="11.8447" gradientUnits="userSpaceOnUse">
<stop stop-color="#0D0D0D"/>
<stop offset="1" stop-color="#4A3000"/>
</linearGradient>
<linearGradient id="paint6_linear_652_26912" x1="99.0848" y1="32.2153" x2="107.524" y2="48.598" gradientUnits="userSpaceOnUse">
<stop stop-color="white"/>
<stop offset="1" stop-color="#B4B4B4"/>
</linearGradient>
<linearGradient id="paint7_linear_652_26912" x1="82.2058" y1="9.87513" x2="99.5814" y2="25.7614" gradientUnits="userSpaceOnUse">
<stop stop-color="#B4B4B4"/>
<stop offset="1" stop-color="white"/>
</linearGradient>
</defs>
</svg>
